<?xml version="1.0" standalone="no"?>
<!DOCTYPE svg PUBLIC "-//W3C//DTD SVG 20010904//EN"
 "http://www.w3.org/TR/2001/REC-SVG-20010904/DTD/svg10.dtd">
<svg version="1.0" xmlns="http://www.w3.org/2000/svg"
 width="260.000000pt" height="260.000000pt" viewBox="0 0 260.000000 260.000000"
 preserveAspectRatio="xMidYMid meet">
<metadata>
Created by potrace 1.14, written by Peter Selinger 2001-2017
</metadata>
<g transform="translate(0.000000,260.000000) scale(0.100000,-0.100000)"
fill="#000000" stroke="none">
<path d="M1240 2544 c-51 -15 -113 -70 -128 -113 l-10 -28 97 -27 98 -28 93
26 c51 14 95 28 98 30 11 12 -23 69 -61 101 -35 30 -56 39 -127 50 -8 1 -35
-4 -60 -11z"/>
<path d="M994 2295 c-14 -54 28 -155 114 -273 26 -35 53 -72 60 -82 11 -15 11
-23 -2 -49 -43 -83 9 -190 100 -207 126 -23 222 96 168 209 l-16 33 56 75 c95
125 154 268 127 308 -8 12 -20 13 -83 2 -40 -7 -105 -22 -144 -32 l-71 -19
-104 25 c-57 14 -125 28 -151 31 -44 5 -48 4 -54 -21z"/>
<path d="M630 2176 c-35 -92 -23 -245 23 -315 l24 -37 -66 11 c-102 17 -182 6
-248 -35 -57 -35 -35 -72 30 -51 50 17 135 21 194 9 99 -20 241 -117 352 -240
l33 -38 -45 20 c-73 32 -228 33 -260 1 -15 -15 5 -48 65 -110 91 -94 186 -124
352 -109 27 3 31 -2 62 -74 19 -42 49 -130 68 -195 l34 -118 1 -236 2 -237
-46 -22 c-170 -82 -110 -339 80 -345 93 -2 185 90 185 185 0 54 -33 113 -79
146 l-41 29 4 260 c3 221 7 271 24 335 29 108 50 168 80 228 24 48 29 52 54
47 78 -18 183 -3 258 35 62 32 160 137 160 172 0 38 -169 43 -261 9 l-53 -21
79 80 c139 139 255 203 375 204 63 0 120 -7 153 -20 21 -8 48 13 41 31 -8 20
-89 55 -143 62 -61 8 -86 8 -150 -1 l-54 -8 20 33 c33 55 46 109 45 184 -1 82
-20 148 -44 153 -22 4 -121 -97 -147 -152 -39 -79 -46 -160 -26 -269 6 -30 4
-37 -15 -47 -33 -17 -76 -55 -160 -140 -125 -124 -199 -240 -263 -413 l-33
-87 -18 57 c-64 203 -227 431 -396 553 -60 44 -61 46 -53 80 4 19 7 71 7 115
0 67 -5 90 -29 140 -30 63 -123 165 -150 165 -8 0 -20 -11 -25 -24z m580
-1915 c0 -28 9 -50 35 -84 41 -53 42 -57 16 -52 -76 14 -112 88 -80 159 16 34
29 23 29 -23z"/>
<path d="M493 1159 c-18 -18 -16 -44 8 -92 81 -158 216 -272 369 -312 90 -24
235 -28 255 -9 20 21 19 26 -14 92 -42 80 -62 109 -126 173 -66 66 -142 110
-240 137 -83 23 -234 29 -252 11z"/>
<path d="M1849 1150 c-160 -41 -288 -149 -370 -311 -36 -72 -36 -84 -1 -98 55
-23 230 1 329 45 111 49 207 144 272 269 35 67 39 100 14 109 -30 12 -177 3
-244 -14z"/>
</g>
</svg>
